<svg width="18" height="18" viewBox="0 0 18 18" fill="none" xmlns="http://www.w3.org/2000/svg">
<path d="M8.15305 2.54974C8.4995 1.81675 9.50047 1.81675 9.84692 2.54974L11.2784 5.57837C11.4159 5.86945 11.6819 6.07119 11.9895 6.11787L15.1903 6.60353C15.965 6.72108 16.2743 7.71514 15.7138 8.28569L13.3976 10.6432C13.175 10.8697 13.0734 11.1962 13.1259 11.5161L13.6727 14.8449C13.8051 15.6505 12.9952 16.2649 12.3024 15.8845L9.43948 14.3128C9.16434 14.1618 8.83563 14.1618 8.56049 14.3128L5.69759 15.8845C5.00472 16.2649 4.19491 15.6505 4.32724 14.8449L4.874 11.5161C4.92655 11.1962 4.82497 10.8697 4.60238 10.6432L2.28625 8.28569C1.7257 7.71514 2.03502 6.72108 2.80968 6.60353L6.01049 6.11787C6.31811 6.07119 6.58403 5.86945 6.72161 5.57837L8.15305 2.54974Z" fill="#F27A54"/>
</svg>
